<svg width="65" height="67" viewBox="0 0 65 67" fill="none" xmlns="http://www.w3.org/2000/svg">
<path d="M2.3003 5.19713L0.973492 5.89683L2.37289 8.55045L3.6997 7.85075L2.3003 5.19713ZM51.8081 66.0267C52.3751 66.6306 53.3244 66.6606 53.9284 66.0936L63.7707 56.8536C64.3747 56.2866 64.4047 55.3373 63.8377 54.7333C63.2706 54.1294 62.3214 54.0994 61.7174 54.6664L52.9686 62.8797L44.7553 54.131C44.1883 53.527 43.239 53.497 42.635 54.064C42.031 54.631 42.0011 55.5803 42.5681 56.1843L51.8081 66.0267ZM3.6997 7.85075C12.2401 3.34693 24.6081 0.960651 34.5039 7.66657C44.3968 14.3705 52.4867 30.6042 51.4024 64.9527L54.4009 65.0473C55.4942 30.4139 47.4038 12.7843 36.1868 5.18308C24.9727 -2.41616 11.3011 0.450502 2.3003 5.19713L3.6997 7.85075Z" fill="white"/>
</svg>
