<svg width="185" height="99" viewBox="0 0 185 99" fill="none" xmlns="http://www.w3.org/2000/svg">
<path d="M1.66028 7.36079L0.199258 7.70051L0.878693 10.6226L2.33972 10.2828L1.66028 7.36079ZM171.53 97.9822C172.073 98.6083 173.02 98.6762 173.646 98.1337L183.849 89.2938C184.475 88.7513 184.543 87.804 184.001 87.1779C183.458 86.5518 182.511 86.484 181.885 87.0264L172.815 94.8841L164.958 85.8145C164.415 85.1884 163.468 85.1206 162.842 85.6631C162.216 86.2055 162.148 87.1528 162.69 87.779L171.53 97.9822ZM2.33972 10.2828C32.2093 3.33756 76.4452 -0.571059 112.192 10.1096C130.041 15.4427 145.671 24.3817 156.387 38.2924C167.087 52.1816 173.008 71.1842 171.168 96.8929L174.16 97.1071C176.043 70.8057 169.992 51.0372 158.764 36.4616C147.552 21.9074 131.299 12.6877 113.051 7.23514C76.6012 -3.6555 31.7816 0.35697 1.66028 7.36079L2.33972 10.2828Z" fill="white"/>
</svg>
